<svg width="265" height="20" viewBox="0 0 265 20" fill="none" xmlns="http://www.w3.org/2000/svg">
<path d="M4.132 4.654V14.902H25.72C26.672 14.902 27.456 14.734 28.072 14.398C28.688 14.034 29.164 13.6 29.5 13.096C29.864 12.592 30.102 12.046 30.214 11.458C30.354 10.842 30.424 10.282 30.424 9.778C30.424 9.274 30.354 8.728 30.214 8.14C30.102 7.524 29.864 6.964 29.5 6.46C29.164 5.956 28.688 5.536 28.072 5.2C27.456 4.836 26.672 4.654 25.72 4.654H4.132ZM34.33 9.778C34.33 10.814 34.162 11.864 33.826 12.928C33.49 13.992 33 14.958 32.356 15.826C31.74 16.694 30.984 17.422 30.088 18.01C29.192 18.57 28.17 18.878 27.022 18.934H2.116C1.556 18.934 1.08 18.738 0.688 18.346C0.296 17.954 0.1 17.478 0.1 16.918V2.638C0.1 2.078 0.296 1.602 0.688 1.21C1.08 0.817999 1.556 0.622 2.116 0.622H26.602C27.806 0.622 28.884 0.902 29.836 1.462C30.788 2.022 31.6 2.75 32.272 3.646C32.944 4.514 33.448 5.494 33.784 6.586C34.148 7.65 34.33 8.714 34.33 9.778ZM38.5316 2.638C38.5316 2.078 38.7276 1.602 39.1196 1.21C39.5116 0.817999 39.9876 0.622 40.5476 0.622H70.3256C70.8856 0.622 71.3616 0.817999 71.7536 1.21C72.1456 1.602 72.3416 2.078 72.3416 2.638C72.3416 3.198 72.1456 3.674 71.7536 4.066C71.3616 4.458 70.8856 4.654 70.3256 4.654H40.5476C39.9876 4.654 39.5116 4.458 39.1196 4.066C38.7276 3.674 38.5316 3.198 38.5316 2.638ZM43.6556 18.934C43.0396 18.934 42.4236 18.808 41.8076 18.556C41.1916 18.276 40.6456 17.898 40.1696 17.422C39.6936 16.946 39.3016 16.372 38.9936 15.7C38.6856 15.028 38.5316 14.272 38.5316 13.432V9.652C38.5316 8.896 38.7416 8.392 39.1616 8.14C39.6096 7.888 40.2956 7.762 41.2196 7.762H69.4016C69.9616 7.762 70.4376 7.958 70.8296 8.35C71.2216 8.742 71.4176 9.218 71.4176 9.778C71.4176 10.338 71.2216 10.814 70.8296 11.206C70.4376 11.598 69.9616 11.794 69.4016 11.794H42.5636V13.852C42.5636 14.132 42.6756 14.384 42.8996 14.608C43.1516 14.804 43.4736 14.902 43.8656 14.902H70.3256C70.8856 14.902 71.3616 15.098 71.7536 15.49C72.1456 15.882 72.3416 16.358 72.3416 16.918C72.3416 17.478 72.1456 17.954 71.7536 18.346C71.3616 18.738 70.8856 18.934 70.3256 18.934H43.6556ZM82.3071 18.934C81.5231 18.934 80.7811 18.794 80.0811 18.514C79.3811 18.206 78.7651 17.8 78.2331 17.296C77.7291 16.792 77.3231 16.204 77.0151 15.532C76.7071 14.86 76.5531 14.132 76.5531 13.348V2.638C76.5531 2.078 76.7491 1.602 77.1411 1.21C77.5331 0.817999 78.0091 0.622 78.5691 0.622C79.1011 0.622 79.5631 0.817999 79.9551 1.21C80.3751 1.602 80.5851 2.078 80.5851 2.638V13.348C80.5851 13.768 80.7391 14.132 81.0471 14.44C81.3831 14.748 81.7611 14.902 82.1811 14.902H107.381C107.941 14.902 108.417 15.098 108.809 15.49C109.201 15.882 109.397 16.358 109.397 16.918C109.397 17.478 109.201 17.954 108.809 18.346C108.417 18.738 107.941 18.934 107.381 18.934H82.3071ZM117.622 16.918C117.622 17.478 117.426 17.954 117.034 18.346C116.642 18.738 116.166 18.934 115.606 18.934C115.046 18.934 114.57 18.738 114.178 18.346C113.786 17.954 113.59 17.478 113.59 16.918V2.638C113.59 2.078 113.786 1.602 114.178 1.21C114.57 0.817999 115.046 0.622 115.606 0.622C116.166 0.622 116.642 0.817999 117.034 1.21C117.426 1.602 117.622 2.078 117.622 2.638V16.918ZM148.336 1.378C148.756 0.874 149.274 0.622 149.89 0.622C150.45 0.622 150.926 0.817999 151.318 1.21C151.71 1.602 151.906 2.078 151.906 2.638C151.906 3.142 151.766 3.548 151.486 3.856L151.444 3.898L141.28 17.59C140.776 18.234 140.132 18.766 139.348 19.186C138.592 19.578 137.766 19.774 136.87 19.774C136.03 19.774 135.232 19.592 134.476 19.228C133.748 18.864 133.132 18.36 132.628 17.716L122.422 4.066C122.254 3.87 122.114 3.66 122.002 3.436C121.89 3.184 121.834 2.918 121.834 2.638C121.834 2.078 122.03 1.602 122.422 1.21C122.814 0.817999 123.29 0.622 123.85 0.622C124.522 0.622 125.054 0.888 125.446 1.42L135.232 14.482C135.428 14.706 135.666 14.958 135.946 15.238C136.254 15.49 136.562 15.616 136.87 15.616C137.178 15.616 137.472 15.49 137.752 15.238C138.06 14.958 138.298 14.706 138.466 14.482L148.336 1.378ZM156.123 2.638C156.123 2.078 156.319 1.602 156.711 1.21C157.103 0.817999 157.579 0.622 158.139 0.622H187.917C188.477 0.622 188.953 0.817999 189.345 1.21C189.737 1.602 189.933 2.078 189.933 2.638C189.933 3.198 189.737 3.674 189.345 4.066C188.953 4.458 188.477 4.654 187.917 4.654H158.139C157.579 4.654 157.103 4.458 156.711 4.066C156.319 3.674 156.123 3.198 156.123 2.638ZM161.247 18.934C160.631 18.934 160.015 18.808 159.399 18.556C158.783 18.276 158.237 17.898 157.761 17.422C157.285 16.946 156.893 16.372 156.585 15.7C156.277 15.028 156.123 14.272 156.123 13.432V9.652C156.123 8.896 156.333 8.392 156.753 8.14C157.201 7.888 157.887 7.762 158.811 7.762H186.993C187.553 7.762 188.029 7.958 188.421 8.35C188.813 8.742 189.009 9.218 189.009 9.778C189.009 10.338 188.813 10.814 188.421 11.206C188.029 11.598 187.553 11.794 186.993 11.794H160.155V13.852C160.155 14.132 160.267 14.384 160.491 14.608C160.743 14.804 161.065 14.902 161.457 14.902H187.917C188.477 14.902 188.953 15.098 189.345 15.49C189.737 15.882 189.933 16.358 189.933 16.918C189.933 17.478 189.737 17.954 189.345 18.346C188.953 18.738 188.477 18.934 187.917 18.934H161.247ZM221.151 11.794C221.907 12.27 222.677 12.788 223.461 13.348C224.245 13.88 225.043 14.468 225.855 15.112C226.163 15.336 226.429 15.602 226.653 15.91C226.877 16.19 226.989 16.526 226.989 16.918C226.989 17.478 226.793 17.954 226.401 18.346C226.009 18.738 225.533 18.934 224.973 18.934C224.497 18.934 224.021 18.738 223.545 18.346C222.397 17.506 221.221 16.694 220.017 15.91C218.813 15.126 217.553 14.426 216.237 13.81C214.949 13.194 213.605 12.704 212.205 12.34C210.805 11.976 209.349 11.794 207.837 11.794H199.479C199.115 11.85 198.807 12.018 198.555 12.298C198.303 12.578 198.177 12.928 198.177 13.348V16.918C198.177 17.478 197.967 17.954 197.547 18.346C197.155 18.738 196.693 18.934 196.161 18.934C195.601 18.934 195.125 18.738 194.733 18.346C194.341 17.954 194.145 17.478 194.145 16.918V12.886C194.145 12.186 194.271 11.528 194.523 10.912C194.803 10.268 195.167 9.722 195.615 9.274C196.063 8.798 196.595 8.434 197.211 8.182C197.827 7.902 198.499 7.762 199.227 7.762H221.487C221.907 7.762 222.271 7.622 222.579 7.342C222.915 7.034 223.083 6.656 223.083 6.208C223.083 5.788 222.915 5.424 222.579 5.116C222.271 4.808 221.907 4.654 221.487 4.654H196.161C195.601 4.654 195.125 4.458 194.733 4.066C194.341 3.674 194.145 3.198 194.145 2.638C194.145 2.078 194.341 1.602 194.733 1.21C195.125 0.817999 195.601 0.622 196.161 0.622H221.319C222.103 0.622 222.831 0.776 223.503 1.084C224.203 1.364 224.805 1.756 225.309 2.26C225.841 2.764 226.247 3.352 226.527 4.024C226.835 4.696 226.989 5.424 226.989 6.208C226.989 6.992 226.835 7.72 226.527 8.392C226.247 9.064 225.841 9.652 225.309 10.156C224.805 10.66 224.203 11.066 223.503 11.374C222.831 11.654 222.103 11.794 221.319 11.794H221.151ZM250.082 16.918C250.082 17.478 249.886 17.954 249.494 18.346C249.102 18.738 248.626 18.934 248.066 18.934C247.506 18.934 247.03 18.738 246.638 18.346C246.246 17.954 246.05 17.478 246.05 16.918V11.794C244.986 11.794 243.95 11.654 242.942 11.374C241.934 11.094 240.87 10.66 239.75 10.072C238.658 9.456 237.482 8.672 236.222 7.72C234.962 6.768 233.548 5.606 231.98 4.234C231.756 4.038 231.56 3.8 231.392 3.52C231.252 3.24 231.182 2.946 231.182 2.638C231.182 2.078 231.378 1.602 231.77 1.21C232.162 0.817999 232.638 0.622 233.198 0.622C233.478 0.622 233.73 0.678 233.954 0.79C234.178 0.901999 234.402 1.042 234.626 1.21C236.418 2.778 237.916 4.01 239.12 4.906C240.352 5.774 241.444 6.418 242.396 6.838C243.376 7.258 244.3 7.524 245.168 7.636C246.036 7.72 247.016 7.762 248.108 7.762C249.2 7.762 250.166 7.72 251.006 7.636C251.846 7.552 252.742 7.3 253.694 6.88C254.646 6.46 255.724 5.816 256.928 4.948C258.16 4.052 259.686 2.806 261.506 1.21C261.982 0.817999 262.458 0.622 262.934 0.622C263.494 0.622 263.97 0.817999 264.362 1.21C264.754 1.602 264.95 2.078 264.95 2.638C264.95 2.946 264.866 3.24 264.698 3.52C264.558 3.8 264.376 4.038 264.152 4.234C262.612 5.578 261.198 6.74 259.91 7.72C258.622 8.672 257.404 9.456 256.256 10.072C255.136 10.66 254.058 11.094 253.022 11.374C252.014 11.654 251.034 11.794 250.082 11.794V16.918Z" fill="black"/>
</svg>
